<svg width="2117" height="2117" viewBox="0 0 2117 2117" fill="none" xmlns="http://www.w3.org/2000/svg">
<path d="M816.611 578.894C863.288 825.348 787.827 1006.77 744.262 1066.67C880.403 967.869 1132.15 649.376 1050 165.802C1040.66 627.905 916.966 723.592 907.631 697.92C900.163 677.382 843.839 610.012 816.611 578.894Z" fill="url(#paint0_linear_932_326)"/>
<path d="M1115.34 249.821C1150.82 417.858 1114.57 725.926 1092.01 858.956L1176.02 623.237C1176.02 675.515 1202.47 749.265 1215.7 779.605L1255.37 681.583C1270.31 838.418 1396.96 1003.65 1458.42 1066.67C1323.99 893.03 1332.39 568.002 1353.4 427.193C1310.45 445.864 1257.71 522.103 1236.7 557.889C1206.83 541.085 1143.35 345.509 1115.34 249.821Z" fill="url(#paint1_linear_932_326)"/>
<path d="M685.915 1951.2C334.904 1518.04 654.797 1165.47 858.62 1043.33C683.116 1300.99 693.694 1583.23 720.922 1692.14C644.371 1606.25 642.349 1438.53 650.906 1365.4C507.141 1531.57 614.344 1825.17 685.915 1951.2Z" fill="url(#paint2_linear_932_326)"/>
<path d="M839.948 1150.69C993.39 950.909 1053.25 745.375 1064 667.58C1101.34 915.902 937.62 1132.02 879.624 1279.05C747.061 1615.12 965.977 1722.48 1092.01 1734.15C1327.26 1642.66 1298.94 1450.2 1255.37 1365.4C1215.13 1483.03 1129.69 1535.77 1092.01 1547.44C1157.35 1463.42 1228.15 1247.93 1255.37 1150.69C1552.46 1498.43 1278.71 1916.19 1064 1895.19C892.227 1878.38 797.939 1752.82 772.267 1692.14C730.893 1594.9 686.506 1350.46 839.948 1150.69Z" fill="url(#paint3_linear_932_326)"/>
<path d="M1411.74 1489.1C1404.27 1210.9 1195.47 987.317 1092.01 910.3C1322.28 974.092 1733.35 1219.77 1535.44 1692.14C1551.77 1549 1545.7 1243.11 1390.74 1164.69C1422.63 1233.15 1471.49 1393.87 1411.74 1489.1Z" fill="url(#paint4_linear_932_326)"/>
<defs>
<linearGradient id="paint0_linear_932_326" x1="100.267" y1="-131.764" x2="2197.44" y2="291.658" gradientUnits="userSpaceOnUse">
<stop stop-color="#FFF733"/>
<stop offset="1" stop-color="#FF00A8"/>
</linearGradient>
<linearGradient id="paint1_linear_932_326" x1="100.267" y1="-131.764" x2="2197.44" y2="291.658" gradientUnits="userSpaceOnUse">
<stop stop-color="#FFF733"/>
<stop offset="1" stop-color="#FF00A8"/>
</linearGradient>
<linearGradient id="paint2_linear_932_326" x1="100.267" y1="-131.764" x2="2197.44" y2="291.658" gradientUnits="userSpaceOnUse">
<stop stop-color="#FFF733"/>
<stop offset="1" stop-color="#FF00A8"/>
</linearGradient>
<linearGradient id="paint3_linear_932_326" x1="100.267" y1="-131.764" x2="2197.44" y2="291.658" gradientUnits="userSpaceOnUse">
<stop stop-color="#FFF733"/>
<stop offset="1" stop-color="#FF00A8"/>
</linearGradient>
<linearGradient id="paint4_linear_932_326" x1="100.267" y1="-131.764" x2="2197.44" y2="291.658" gradientUnits="userSpaceOnUse">
<stop stop-color="#FFF733"/>
<stop offset="1" stop-color="#FF00A8"/>
</linearGradient>
</defs>
</svg>
